Coordinates
version=1
nRows=6
nColumns=36
inDegrees=yes

Units are S.I. units (second, meters, Newtons, ...)
If the header above contains a line with 'inDegrees', this indicates whether rotational values are in degrees (yes) or radians (no).

endheader
time	pelvis_tilt	pelvis_list	pelvis_rotation	pelvis_tx	pelvis_ty	pelvis_tz	hip_flexion_r	hip_adduction_r	hip_rotation_r	knee_angle_r	knee_angle_r_beta	ankle_angle_r	subtalar_angle_r	mtp_angle_r	hip_flexion_l	hip_adduction_l	hip_rotation_l	knee_angle_l	knee_angle_l_beta	ankle_angle_l	subtalar_angle_l	mtp_angle_l	lumbar_extension	lumbar_bending	lumbar_rotation	arm_flex_r	arm_add_r	arm_rot_r	elbow_flex_r	pro_sup_r	arm_flex_l	arm_add_l	arm_rot_l	elbow_flex_l	pro_sup_l
      0.97000000	    -12.62655994	     -0.91721452	     -2.27939115	     -0.76517115	      1.54487524	     -0.57519565	     34.77904112	     -3.32017638	      4.07214472	     59.33900074	      1.03566094	    -16.75294519	     -6.37352533	     -5.34220650	     37.13315700	     -7.21306568	     -1.58289372	     69.68687041	      1.21626533	    -28.81347137	    -17.38713263	     -5.34220650	    -18.50290971	     -2.16293003	      2.85099509	    -20.67641953	    -39.51846280	    -23.18673677	    116.25607439	    111.21563732	     -1.43187079	    -48.63292134	      0.88159070	    116.79565288	    104.14622393
      0.98000000	    -12.76376277	     -0.88237913	     -2.53184921	     -0.75861114	      1.54609936	     -0.57461483	     36.44935367	     -3.57152490	      3.90681000	     60.00191743	      1.04723102	    -16.37131874	     -6.88875610	     -5.36880364	     38.92821755	     -7.79128272	     -1.88905757	     70.98913651	      1.23899417	    -29.15579798	    -17.66502254	     -5.36880364	    -19.35654023	     -2.38826292	      2.95748426	    -21.91105322	    -39.05532091	    -23.84221201	    115.24973693	    110.97243703	     -2.69033345	    -48.17390059	      0.07435194	    115.60218936	    104.26448449
      0.99000000	    -12.76937341	     -0.83894641	     -2.78878011	     -0.75178791	      1.54680614	     -0.57412612	     37.82305717	     -3.86648978	      3.65660552	     60.20401564	      1.05075830	    -15.95373082	     -7.15189381	     -5.38247985	     40.36557625	     -8.35580756	     -2.23165508	     71.70664075	      1.25151698	    -29.68828499	    -17.57634863	     -5.38247985	    -20.30958917	     -2.62546465	      3.02159954	    -23.06612481	    -38.73419461	    -24.30818134	    114.13405721	    110.85300236	     -3.83885334	    -47.79017496	     -0.50999007	    114.37338601	    104.25628027
      1.00000000	    -13.25485882	     -0.84484018	     -2.96175415	     -0.74488508	      1.54603188	     -0.57363752	     39.55019161	     -4.12105645	      3.27915244	     60.02734480	      1.04767481	    -15.18234921	     -7.47459639	     -5.40713866	     42.22596006	     -8.96682011	     -2.52752011	     71.95698393	      1.25588629	    -30.63622439	    -17.55205304	     -5.40713866	    -20.74629948	     -2.75477133	      3.03184731	    -24.29587108	    -38.10513026	    -24.79375754	    113.28898267	    110.79290300	     -5.17841995	    -47.12221276	     -1.45618362	    113.31722294	    104.37622059
      1.01000000	    -13.12807001	     -0.79003585	     -3.09294266	     -0.73712271	      1.54552849	     -0.57315559	     40.37808318	     -4.56521392	      2.69857940	     59.29515251	      1.03489564	    -14.82299610	     -7.63598751	     -5.41105614	     43.10931941	     -9.50887933	     -2.99056573	     71.64595384	      1.25045779	    -30.86065781	    -17.44443101	     -5.41105614	    -21.78797753	     -3.01335930	      2.99307120	    -25.43004059	    -37.61889328	    -24.78940609	    112.36381729	    110.74158212	     -6.22908926	    -47.03897240	     -1.53480108	    112.44563221	    104.32774942
      1.02000000	    -13.61914601	     -0.73935219	     -3.21309564	     -0.72931948	      1.54346706	     -0.57268740	     41.73420649	     -4.81492363	      2.36903968	     58.33242194	      1.01809282	    -13.69636433	     -8.15011459	     -5.42417693	     44.50792640	     -9.95577026	     -3.26699822	     70.78017287	      1.23534706	    -31.84273035	    -16.99869031	     -5.42417693	    -22.08136282	     -3.19646293	      2.95272888	    -26.56970647	    -36.75482603	    -25.48367241	    111.02413073	    110.64545584	     -7.53223612	    -46.34638652	     -2.37914183	    111.24733105	    104.27838077
